{
  "accessors": [
    {
      "bufferView": 2,
      "componentType": 5126,
      "count": 1354,
      "max": [
        1.1295100450515747,
        1.1295100450515747,
        0.22563999891281128
      ],
      "min": [
        -1.1295100450515747,
        -1.1295100450515747,
        -0.2341500073671341
      ],
      "type": "VEC3"
    },
    {
      "bufferView": 2,
      "byteOffset": 16248,
      "componentType": 5126,
      "count": 1354,
      "max": [
        1.0,
        1.0,
        0.9999326467514038
      ],
      "min": [
        -1.0,
        -1.0,
        -0.9999459385871887
      ],
      "type": "VEC3"
    },
    {
      "bufferView": 1,
      "componentType": 5126,
      "count": 1354,
      "max": [
        0.8509500026702881,
        0.6268500089645386
      ],
      "min": [
        0.1330299973487854,
        -0.06702999770641327
      ],
      "type": "VEC2"
    },
    {
      "bufferView": 0,
      "componentType": 5125,
      "count": 7674,
      "type": "SCALAR"
    },
    {
      "bufferView": 2,
      "byteOffset": 32496,
      "componentType": 5126,
      "count": 341,
      "max": [
        3.9210100173950195,
        2.6336400508880615,
        3.902400016784668
      ],
      "min": [
        -3.926219940185547,
        -2.6448700428009033,
        -4.860690116882324
      ],
      "type": "VEC3"
    },
    {
      "bufferView": 2,
      "byteOffset": 36588,
      "componentType": 5126,
      "count": 341,
      "max": [
        1.0,
        1.0,
        0.9996055960655212
      ],
      "min": [
        -1.0,
        -1.0,
        -0.9846246838569641
      ],
      "type": "VEC3"
    },
    {
      "bufferView": 1,
      "byteOffset": 10832,
      "componentType": 5126,
      "count": 341,
      "max": [
        0.8529300093650818,
        1.086549997329712
      ],
      "min": [
        0.021069999784231186,
        0.4573099911212921
      ],
      "type": "VEC2"
    },
    {
      "bufferView": 0,
      "byteOffset": 30696,
      "componentType": 5125,
      "count": 2016,
      "type": "SCALAR"
    },
    {
      "bufferView": 2,
      "byteOffset": 40680,
      "componentType": 5126,
      "count": 16,
      "max": [
        1.0,
        1.0,
        1.0
      ],
      "min": [
        -1.0,
        -1.0,
        -1.0
      ],
      "type": "VEC3"
    },
    {
      "bufferView": 2,
      "byteOffset": 40872,
      "componentType": 5126,
      "count": 16,
      "max": [
        0.7763842940330505,
        0.7763842940330505,
        0.6302598118782043
      ],
      "min": [
        -0.7763842940330505,
        -0.7763842940330505,
        -0.6302598118782043
      ],
      "type": "VEC3"
    },
    {
      "bufferView": 1,
      "byteOffset": 13560,
      "componentType": 5126,
      "count": 16,
      "max": [
        0.0,
        0.0
      ],
      "min": [
        0.0,
        0.0
      ],
      "type": "VEC2"
    },
    {
      "bufferView": 0,
      "byteOffset": 38760,
      "componentType": 5125,
      "count": 84,
      "type": "SCALAR"
    },
    {
      "bufferView": 2,
      "byteOffset": 41064,
      "componentType": 5126,
      "count": 129,
      "max": [
        0.7071099877357483,
        0.7071099877357483,
        1.0
      ],
      "min": [
        -0.7071099877357483,
        -0.7071099877357483,
        0.7071099877357483
      ],
      "type": "VEC3"
    },
    {
      "bufferView": 2,
      "byteOffset": 42612,
      "componentType": 5126,
      "count": 129,
      "max": [
        0.634396493434906,
        0.634396493434906,
        1.0
      ],
      "min": [
        -0.634396493434906,
        -0.634396493434906,
        0.7730079293251038
      ],
      "type": "VEC3"
    },
    {
      "bufferView": 1,
      "byteOffset": 13688,
      "componentType": 5126,
      "count": 129,
      "max": [
        0.8652300238609314,
        0.8367400169372559
      ],
      "min": [
        0.13447000086307526,
        0.13018999993801117
      ],
      "type": "VEC2"
    },
    {
      "bufferView": 0,
      "byteOffset": 39096,
      "componentType": 5125,
      "count": 672,
      "type": "SCALAR"
    }
  ],
  "asset": {
    "extras": {
      "author": "LOKIGOKU (https://sketchfab.com/LOKIGU)",
      "license": "CC-BY-4.0 (http://creativecommons.org/licenses/by/4.0/)",
      "source": "https://sketchfab.com/3d-models/dragon-radar-v12-4e78f34532a347f5b6fadbdcd6e826bf",
      "title": "Dragon Radar V12"
    },
    "generator": "Sketchfab-12.67.0",
    "version": "2.0"
  },
  "bufferViews": [
    {
      "buffer": 0,
      "byteLength": 41784,
      "name": "floatBufferViews",
      "target": 34963
    },
    {
      "buffer": 0,
      "byteLength": 14720,
      "byteOffset": 41784,
      "byteStride": 8,
      "name": "floatBufferViews",
      "target": 34962
    },
    {
      "buffer": 0,
      "byteLength": 44160,
      "byteOffset": 56504,
      "byteStride": 12,
      "name": "floatBufferViews",
      "target": 34962
    }
  ],
  "buffers": [
    {
      "byteLength": 100664,
      "uri": "scene.bin"
    }
  ],
  "images": [
    {
      "uri": "textures/Mk_258_baseColor.png"
    },
    {
      "uri": "textures/Mk_196_baseColor.png"
    }
  ],
  "materials": [
    {
      "doubleSided": true,
      "name": "Mk_258",
      "pbrMetallicRoughness": {
        "baseColorTexture": {
          "index": 0
        },
        "metallicFactor": 0.0,
        "roughnessFactor": 0.6
      }
    },
    {
      "doubleSided": true,
      "name": "Mk_196",
      "pbrMetallicRoughness": {
        "baseColorTexture": {
          "index": 1
        },
        "metallicFactor": 0.0,
        "roughnessFactor": 0.6
      }
    }
  ],
  "meshes": [
    {
      "name": "Torus.002_0",
      "primitives": [
        {
          "attributes": {
            "NORMAL": 1,
            "POSITION": 0,
            "TEXCOORD_0": 2
          },
          "indices": 3,
          "material": 1,
          "mode": 4
        }
      ]
    },
    {
      "name": "Torus.001_0",
      "primitives": [
        {
          "attributes": {
            "NORMAL": 5,
            "POSITION": 4,
            "TEXCOORD_0": 6
          },
          "indices": 7,
          "material": 1,
          "mode": 4
        }
      ]
    },
    {
      "name": "Cylinder_0",
      "primitives": [
        {
          "attributes": {
            "NORMAL": 9,
            "POSITION": 8,
            "TEXCOORD_0": 10
          },
          "indices": 11,
          "material": 1,
          "mode": 4
        }
      ]
    },
    {
      "name": "Sphere.001_0",
      "primitives": [
        {
          "attributes": {
            "NORMAL": 13,
            "POSITION": 12,
            "TEXCOORD_0": 14
          },
          "indices": 15,
          "material": 0,
          "mode": 4
        }
      ]
    }
  ],
  "nodes": [
    {
      "children": [
        1
      ],
      "matrix": [
        1.0,
        0.0,
        0.0,
        0.0,
        0.0,
        2.220446049250313e-16,
        -1.0,
        0.0,
        0.0,
        1.0,
        2.220446049250313e-16,
        0.0,
        0.0,
        0.0,
        0.0,
        1.0
      ],
      "name": "Sketchfab_model"
    },
    {
      "children": [
        2,
        4,
        6,
        8,
        10
      ],
      "name": "Root"
    },
    {
      "children": [
        3
      ],
      "matrix": [
        2.21931,
        0.06218000000000001,
        -1.16853,
        0.0,
        1.1344400000000001,
        0.50018,
        2.1811800000000003,
        0.0,
        0.28701000000000004,
        -2.45777,
        0.41433000000000003,
        0.0,
        -0.48257000000000005,
        -0.22591000000000006,
        -3.44488,
        1.0
      ],
      "name": "Torus.002"
    },
    {
      "mesh": 0,
      "name": "Torus.002_0"
    },
    {
      "children": [
        5
      ],
      "matrix": [
        0.21368,
        0.005990000000000001,
        -0.11251000000000001,
        0.0,
        -0.026000000000000006,
        0.22261000000000003,
        -0.03753000000000001,
        0.0,
        0.07008,
        0.030900000000000007,
        0.13475,
        0.0,
        0.96938,
        0.42168000000000005,
        -0.6168600000000001,
        1.0
      ],
      "name": "Torus.001"
    },
    {
      "mesh": 1,
      "name": "Torus.001_0"
    },
    {
      "children": [
        7
      ],
      "matrix": [
        0.21593000000000004,
        0.0060500000000000016,
        -0.11369000000000003,
        0.0,
        -0.027930000000000007,
        0.23913,
        -0.04031000000000001,
        0.0,
        0.19426000000000004,
        0.08565000000000002,
        0.37349000000000004,
        0.0,
        1.02264,
        0.4453700000000001,
        -0.50554,
        1.0
      ],
      "name": "Cylinder"
    },
    {
      "mesh": 2,
      "name": "Cylinder_0"
    },
    {
      "children": [
        9
      ],
      "matrix": [
        3.0321599999999997,
        0.08495000000000001,
        -1.59652,
        0.0,
        1.5499399999999999,
        0.6833700000000001,
        2.98006,
        0.0,
        0.39213000000000003,
        -3.3579499999999998,
        0.56608,
        0.0,
        -0.7289000000000001,
        1.93234,
        -3.79787,
        1.0
      ],
      "name": "Sphere.001"
    },
    {
      "mesh": 3,
      "name": "Sphere.001_0"
    },
    {
      "children": [
        11
      ],
      "matrix": [
        0.8845700000000001,
        0.024780000000000003,
        -0.46575,
        0.0,
        -0.11440000000000002,
        0.97961,
        -0.16514000000000004,
        0.0,
        0.45216,
        0.19936000000000004,
        0.8693700000000001,
        0.0,
        0.38933000000000006,
        -3.51217,
        -4.52462,
        1.0
      ],
      "name": "Sun"
    },
    {
      "name": "Sun"
    }
  ],
  "samplers": [
    {
      "magFilter": 9729,
      "minFilter": 9987,
      "wrapS": 10497,
      "wrapT": 10497
    }
  ],
  "scene": 0,
  "scenes": [
    {
      "name": "Sketchfab_Scene",
      "nodes": [
        0
      ]
    }
  ],
  "textures": [
    {
      "sampler": 0,
      "source": 0
    },
    {
      "sampler": 0,
      "source": 1
    }
  ]
}
