{
  "accessors": [
    {
      "bufferView": 2,
      "componentType": 5126,
      "count": 65532,
      "max": [
        0.07300999760627747,
        -0.12320999801158905,
        0.35161998867988586
      ],
      "min": [
        -0.056129999458789825,
        -0.24219000339508057,
        0.047269999980926514
      ],
      "type": "VEC3"
    },
    {
      "bufferView": 2,
      "byteOffset": 786384,
      "componentType": 5126,
      "count": 65532,
      "max": [
        1.0,
        0.9999063014984131,
        0.9996603727340698
      ],
      "min": [
        -0.9999660849571228,
        -0.9999989867210388,
        -0.9996230602264404
      ],
      "type": "VEC3"
    },
    {
      "bufferView": 1,
      "componentType": 5126,
      "count": 65532,
      "max": [
        0.9977949857711792,
        0.9979130029678345
      ],
      "min": [
        0.00215300009585917,
        0.2761160135269165
      ],
      "type": "VEC2"
    },
    {
      "bufferView": 0,
      "componentType": 5125,
      "count": 353910,
      "type": "SCALAR"
    },
    {
      "bufferView": 2,
      "byteOffset": 1572768,
      "componentType": 5126,
      "count": 20506,
      "max": [
        0.07419999688863754,
        -0.13996000587940216,
        0.35161998867988586
      ],
      "min": [
        -0.05621999874711037,
        -0.24143999814987183,
        0.047269999980926514
      ],
      "type": "VEC3"
    },
    {
      "bufferView": 2,
      "byteOffset": 1818840,
      "componentType": 5126,
      "count": 20506,
      "max": [
        0.9999812841415405,
        0.9999416470527649,
        0.9999384880065918
      ],
      "min": [
        -1.0,
        -0.9999150037765503,
        -0.99458909034729
      ],
      "type": "VEC3"
    },
    {
      "bufferView": 1,
      "byteOffset": 524256,
      "componentType": 5126,
      "count": 20506,
      "max": [
        0.9897840023040771,
        0.8769189715385437
      ],
      "min": [
        0.0021089999936521053,
        0.3010689914226532
      ],
      "type": "VEC2"
    },
    {
      "bufferView": 0,
      "byteOffset": 1415640,
      "componentType": 5125,
      "count": 110277,
      "type": "SCALAR"
    }
  ],
  "asset": {
    "extras": {
      "author": "Boujo (https://sketchfab.com/Boujo)",
      "license": "CC-BY-NC-SA-4.0 (http://creativecommons.org/licenses/by-nc-sa/4.0/)",
      "source": "https://sketchfab.com/3d-models/goku-ssj3-fac7a1dbe21b480ca08d7c60b1823580",
      "title": "Goku ssj3"
    },
    "generator": "Sketchfab-15.27.0",
    "version": "2.0"
  },
  "bufferViews": [
    {
      "buffer": 0,
      "byteLength": 1856748,
      "name": "floatBufferViews",
      "target": 34963
    },
    {
      "buffer": 0,
      "byteLength": 688304,
      "byteOffset": 1856748,
      "byteStride": 8,
      "name": "floatBufferViews",
      "target": 34962
    },
    {
      "buffer": 0,
      "byteLength": 2064912,
      "byteOffset": 2545052,
      "byteStride": 12,
      "name": "floatBufferViews",
      "target": 34962
    }
  ],
  "buffers": [
    {
      "byteLength": 4609964,
      "uri": "scene.bin"
    }
  ],
  "extensionsUsed": [
    "KHR_materials_unlit"
  ],
  "images": [
    {
      "uri": "textures/main_baseColor.jpeg"
    }
  ],
  "materials": [
    {
      "doubleSided": true,
      "extensions": {
        "KHR_materials_unlit": {}
      },
      "name": "main",
      "pbrMetallicRoughness": {
        "baseColorTexture": {
          "index": 0
        },
        "metallicFactor": 0.0
      }
    }
  ],
  "meshes": [
    {
      "name": "Object_0",
      "primitives": [
        {
          "attributes": {
            "NORMAL": 1,
            "POSITION": 0,
            "TEXCOORD_0": 2
          },
          "indices": 3,
          "material": 0,
          "mode": 4
        }
      ]
    },
    {
      "name": "Object_1",
      "primitives": [
        {
          "attributes": {
            "NORMAL": 5,
            "POSITION": 4,
            "TEXCOORD_0": 6
          },
          "indices": 7,
          "material": 0,
          "mode": 4
        }
      ]
    }
  ],
  "nodes": [
    {
      "children": [
        1
      ],
      "matrix": [
        1.0,
        0.0,
        0.0,
        0.0,
        0.0,
        2.220446049250313e-16,
        -1.0,
        0.0,
        0.0,
        1.0,
        2.220446049250313e-16,
        0.0,
        0.0,
        0.0,
        0.0,
        1.0
      ],
      "name": "Sketchfab_model"
    },
    {
      "children": [
        2,
        3
      ],
      "name": "Scaniverse.obj.cleaner.materialmerger.gles"
    },
    {
      "mesh": 0,
      "name": "Object_2"
    },
    {
      "mesh": 1,
      "name": "Object_3"
    }
  ],
  "samplers": [
    {
      "magFilter": 9729,
      "minFilter": 9987,
      "wrapS": 10497,
      "wrapT": 10497
    }
  ],
  "scene": 0,
  "scenes": [
    {
      "name": "Sketchfab_Scene",
      "nodes": [
        0
      ]
    }
  ],
  "textures": [
    {
      "sampler": 0,
      "source": 0
    }
  ]
}
